<?xml version="1.0" encoding="UTF-8"?>
<svg version="1.1" xmlns="http://www.w3.org/2000/svg" width="410" height="410">
<path d="M0 0 C6.5977638 -0.10236919 13.19531891 -0.17186711 19.79370117 -0.21972656 C22.03303684 -0.23970193 24.27232129 -0.26689182 26.51147461 -0.30175781 C44.52442662 -0.57498573 59.10266362 -0.17336054 72.92578125 12.80859375 C94.36374976 35.6725912 98.68192497 75.45068475 97.97583008 105.33374023 C96.86431341 130.59181279 92.39335048 161.14275649 73 179 C58.43515745 191.58994865 40.07740536 193.32525323 21.59277344 193.22705078 C20.0836335 193.22648529 18.57449301 193.22680592 17.06535339 193.22793579 C13.00622673 193.22850491 8.94722051 193.21682276 4.8881216 193.20278788 C0.63206546 193.1902063 -3.62399405 193.1891042 -7.88006592 193.18673706 C-15.92265882 193.18054397 -23.96519674 193.16416282 -32.00776553 193.14403808 C-41.17110235 193.12161115 -50.33444192 193.11066863 -59.4977994 193.10064721 C-78.33189819 193.07979445 -97.16594264 193.0442538 -116 193 C-116 199.6 -116 206.2 -116 213 C-84.32 213 -52.64 213 -20 213 C-19.938125 221.8275 -19.87625 230.655 -19.8125 239.75 C-19.77153198 243.89320801 -19.77153198 243.89320801 -19.72973633 248.12011719 C-19.72096237 250.3456987 -19.7133206 252.57128508 -19.70703125 254.796875 C-19.6840094 256.48611084 -19.6840094 256.48611084 -19.66052246 258.20947266 C-19.65667606 270.04099603 -21.69467947 281.72117392 -29.64453125 290.8984375 C-49.91712476 310.44548556 -88.75222642 310.75224607 -115.03474426 310.39848328 C-137.71490006 309.9192185 -161.58229987 306.39379053 -178.82421875 290.46875 C-190.02702525 277.75748661 -192.15450919 263.02605339 -192.14526367 246.62573242 C-192.14862228 245.74782547 -192.1519809 244.86991852 -192.15544128 243.96540833 C-192.16485306 241.09541363 -192.16688937 238.22547787 -192.16796875 235.35546875 C-192.17118789 233.33824134 -192.17455245 231.32101417 -192.17805481 229.30378723 C-192.1840215 225.08687804 -192.18589723 220.86998928 -192.18530273 216.65307617 C-192.1852012 211.2805021 -192.1988554 205.90806044 -192.21607494 200.53551769 C-192.22725581 196.371927 -192.22922009 192.20836773 -192.22869301 188.04476357 C-192.22986389 186.06545874 -192.23423481 184.08615286 -192.24202538 182.10686302 C-192.30901029 163.33334211 -192.08417155 147.67937533 -178.4453125 133.3203125 C-166.27970561 121.77658967 -151.27834634 116.67560214 -134.70166016 116.72875977 C-133.83190048 116.72353302 -132.96214081 116.71830627 -132.06602478 116.71292114 C-130.1962525 116.70275962 -128.32645255 116.69691461 -126.45665359 116.69503975 C-123.48678971 116.69134115 -120.51724948 116.67452009 -117.54745483 116.65428162 C-109.11014857 116.5992017 -100.6727962 116.56824036 -92.23535156 116.54370117 C-87.05601798 116.52773784 -81.87691677 116.49743231 -76.69770432 116.45893669 C-74.73714049 116.4473689 -72.77653499 116.44135707 -70.81593704 116.44125557 C-50.22339434 116.43980265 -33.83714087 112.83522623 -18.7265625 97.88671875 C-8.51016132 87.07021378 -0.85891764 73.43745789 -0.68115234 58.23852539 C-0.66128265 56.93770523 -0.64141296 55.63688507 -0.62094116 54.29664612 C-0.60906831 52.89698455 -0.59740525 51.49732119 -0.5859375 50.09765625 C-0.56720508 48.65033388 -0.54763015 47.20302219 -0.5272522 45.75572205 C-0.47614374 41.96648485 -0.4364049 38.17721234 -0.39910889 34.38781738 C-0.35893494 30.51301488 -0.30790402 26.63835661 -0.2578125 22.76367188 C-0.16130564 15.17588057 -0.07682108 7.58801887 0 0 Z M-70.24609375 241.54296875 C-73.09898095 245.85685008 -73.98259981 249.90652345 -73 255 C-71.55253479 259.00085889 -69.48341027 261.55111903 -66.375 264.4375 C-61.80102057 266.55508307 -57.95993123 266.67408461 -53 266 C-48.63750745 264.25500298 -45.3216841 261.09185704 -43 257 C-41.47687429 252.24573478 -41.53487765 248.26242943 -43.5625 243.6875 C-45.79895236 239.90215326 -47.89035202 237.79330094 -52 236 C-59.40015505 234.94125949 -65.28387983 235.39853458 -70.24609375 241.54296875 Z " fill="#FFC006" transform="translate(310,98)"/>
<path d="M0 0 C1.16273438 0.2165625 2.32546875 0.433125 3.5234375 0.65625 C18.60054631 3.9119753 30.3659608 12.29801108 39.53125 24.59765625 C43.47497374 31.04816184 46.10544313 38.91191862 46.14717102 46.50036621 C46.15790398 47.84569427 46.15790398 47.84569427 46.16885376 49.21820068 C46.17154266 50.1948468 46.17423157 51.17149292 46.17700195 52.17773438 C46.18357315 53.21242859 46.19014435 54.2471228 46.19691467 55.31317139 C46.21663515 58.74003169 46.22830987 62.16684811 46.23828125 65.59375 C46.24235678 66.76662064 46.2464323 67.93949127 46.25063133 69.14790344 C46.27149047 75.36031925 46.28579079 81.572713 46.29516602 87.78515625 C46.30620744 94.18270123 46.34058205 100.5798962 46.38033772 106.97731781 C46.40656739 111.91207497 46.4148637 116.8467497 46.41844749 121.78157043 C46.42329994 124.1385178 46.4348753 126.49546181 46.45348549 128.8523407 C46.59314942 147.71835191 45.32991124 160.46843151 32.1953125 174.99609375 C17.98819235 188.6849284 -0.3806616 190.44311554 -19.01516724 190.38012505 C-22.00243175 190.37089308 -24.98908464 190.3813742 -27.97631836 190.39674377 C-36.45979042 190.43651573 -44.94320787 190.43804977 -53.42675781 190.43579102 C-58.64199761 190.43573962 -63.85690389 190.45504869 -69.072052 190.48512459 C-71.99284456 190.49583825 -74.91297022 190.48388943 -77.83374023 190.47129822 C-96.84060815 190.50787054 -112.93904734 195.5078561 -127 209 C-140.55420045 224.28685714 -145.40858157 241.29415896 -145.51171875 261.39453125 C-145.53864555 263.36458382 -145.53864555 263.36458382 -145.56611633 265.37443542 C-145.6130315 268.81836094 -145.64321466 272.26222378 -145.66955566 275.70635986 C-145.69966157 279.23991284 -145.7460861 282.77325056 -145.79101562 286.30664062 C-145.87638024 293.20430315 -145.94401746 300.10203793 -146 307 C-152.61607509 307.10225665 -159.23194296 307.17182119 -165.84863281 307.21972656 C-168.09480403 307.23971832 -170.34092403 307.26692098 -172.58691406 307.30175781 C-190.80782305 307.57709599 -204.66938361 306.74697373 -218.625 293.8125 C-239.64723315 271.38555542 -243.86215579 232.79363963 -243.25 203.265625 C-242.37227964 179.93581791 -239.05437756 151.00458395 -223 133 C-222.47792969 132.38511719 -221.95585937 131.77023438 -221.41796875 131.13671875 C-211.4392631 120.18684953 -197.317229 115.7843293 -183 114 C-180.78447309 113.91613867 -178.56685945 113.8779237 -176.3497467 113.87974548 C-175.05275848 113.87837082 -173.75577026 113.87699615 -172.41947937 113.87557983 C-170.99978614 113.87911808 -169.58009315 113.88275287 -168.16040039 113.88647461 C-166.6519979 113.88675695 -165.14359528 113.88659782 -163.63519287 113.8860321 C-159.55514687 113.88574598 -155.47513044 113.89161287 -151.3950913 113.89860606 C-147.12565465 113.90487033 -142.85621727 113.90544583 -138.58677673 113.90663147 C-130.50862119 113.90973573 -122.43047924 113.91793691 -114.35232967 113.92798096 C-105.15282792 113.93917022 -95.9533255 113.94465963 -86.75381863 113.94967639 C-67.83587118 113.96012029 -48.91793718 113.97790435 -30 114 C-30 107.4 -30 100.8 -30 94 C-34.30889282 94.00785522 -34.30889282 94.00785522 -38.70483398 94.01586914 C-48.17241009 94.03240357 -57.63998681 94.04347063 -67.10757351 94.05181217 C-72.85045062 94.05704141 -78.59331301 94.0641398 -84.33618164 94.07543945 C-89.87339995 94.08626687 -95.41060404 94.09227652 -100.94783211 94.09487724 C-103.06544277 94.09673176 -105.18305262 94.10035286 -107.30065727 94.10573006 C-110.25571274 94.11293856 -113.21070871 94.11399102 -116.16577148 94.11352539 C-117.49285881 94.1189183 -117.49285881 94.1189183 -118.84675598 94.12442017 C-124.88594784 94.11405216 -124.88594784 94.11405216 -126 93 C-126.10151884 90.07280974 -126.13965182 87.16978895 -126.1328125 84.2421875 C-126.13376923 83.34694366 -126.13472595 82.45169983 -126.13571167 81.52932739 C-126.13639453 79.62095063 -126.13453295 77.71257157 -126.13037109 75.80419922 C-126.12511152 72.93581624 -126.13026627 70.06759624 -126.13671875 67.19921875 C-126.15387187 27.80771986 -126.15387187 27.80771986 -115.25 16.125 C-88.63928545 -8.76889426 -33.27616262 -6.57075143 0 0 Z M-100.25 46.54296875 C-103.24329528 51.0848786 -103.59633401 54.63299395 -103 60 C-101.04614079 65.34740414 -98.08763713 68.45618143 -93 71 C-88.52938922 71.41145444 -84.38670979 71.55468391 -80.1875 69.875 C-75.75898648 66.07913127 -72.90447893 63.33978787 -72 57.5 C-71.6703174 51.72085788 -73.70566551 48.4561263 -77.5 44.1875 C-81.56976215 40.62645812 -85.30649651 40.65102251 -90.49609375 40.7265625 C-94.90623783 41.2081695 -97.50065888 43.14925081 -100.25 46.54296875 Z " fill="#0176BC" transform="translate(244,5)"/>
</svg>
