<?xml version="1.0" encoding="UTF-8"?>
<svg version="1.1" xmlns="http://www.w3.org/2000/svg" width="474" height="355">
<path d="M0 0 C156.42 0 312.84 0 474 0 C474 117.15 474 234.3 474 355 C317.58 355 161.16 355 0 355 C0 237.85 0 120.7 0 0 Z " fill="#FDFDFD" transform="translate(0,0)"/>
<path d="M0 0 C1.56838623 0.43481689 1.56838623 0.43481689 3.16845703 0.87841797 C17.18813866 4.90123669 30.39819944 10.28225366 43.5 16.625 C44.14881134 16.93838318 44.79762268 17.25176636 45.46609497 17.574646 C75.24603853 32.06377495 104.47898242 54.74940958 116 87 C125.50504862 116.73891216 125.05497343 148.44224561 112 177 C111.46375 178.19367188 110.9275 179.38734375 110.375 180.6171875 C101.12947661 200.17831801 85.43499637 217.64486309 67 229 C66.35675781 229.42796875 65.71351563 229.8559375 65.05078125 230.296875 C49.03472209 240.82264207 28.91901437 247.03076832 9.76757812 243.60009766 C-13.05790001 238.59635938 -30.73383128 223.95963063 -47 208 C-47.72751465 207.28763184 -48.4550293 206.57526367 -49.20458984 205.84130859 C-51.47655268 203.60931592 -53.7405511 201.36965709 -56 199.125 C-56.69391846 198.43591553 -57.38783691 197.74683105 -58.1027832 197.03686523 C-62.60390512 192.52052765 -66.85943811 187.84787712 -71 183 C-71.50370117 182.4126709 -72.00740234 181.8253418 -72.52636719 181.22021484 C-73.97840107 179.5239181 -75.42694266 177.82469178 -76.875 176.125 C-81.28069337 170.96215427 -85.76289989 165.8886639 -90.35546875 160.890625 C-92 159 -92 159 -93 157 C-93.03738281 158.24136719 -93.07476562 159.48273438 -93.11328125 160.76171875 C-93.1789595 162.40367511 -93.2454062 164.04560087 -93.3125 165.6875 C-93.34633789 166.91243164 -93.34633789 166.91243164 -93.38085938 168.16210938 C-93.59149882 172.89192246 -93.97119944 176.15240886 -97 180 C-109.86426303 191.43490047 -131.42731165 194.14132001 -148.09375 194.16796875 C-148.84354126 194.17129715 -149.59333252 194.17462555 -150.36584473 194.17805481 C-151.94571324 194.18308539 -153.52559224 194.18546434 -155.10546875 194.18530273 C-157.46633498 194.18746911 -159.82671735 194.2056106 -162.1875 194.22460938 C-182.67077295 194.30057955 -206.67421105 192.78622178 -223 179 C-224.21077701 175.36766898 -224.12444164 172.04878013 -224.09765625 168.26953125 C-224.0962413 167.51911057 -224.09482635 166.76868988 -224.09336853 165.99552917 C-224.0877756 163.6011454 -224.07522444 161.20685547 -224.0625 158.8125 C-224.05748408 157.18815239 -224.05292134 155.56380332 -224.04882812 153.93945312 C-224.03780848 149.95959931 -224.02054873 145.97981556 -224 142 C-221 141 -221 141 -218.42578125 142.07421875 C-216.88470703 142.87279297 -216.88470703 142.87279297 -215.3125 143.6875 C-207.7380213 147.30679082 -200.21808147 149.37707599 -192 151 C-190.86175781 151.226875 -189.72351563 151.45375 -188.55078125 151.6875 C-163.19269909 155.70462193 -135.62686759 154.01321153 -111.03125 146.8671875 C-108.36220283 146.10361988 -105.72900707 145.49896025 -103 145 C-104.32 143.02 -105.64 141.04 -107 139 C-108.81371094 139.50660156 -108.81371094 139.50660156 -110.6640625 140.0234375 C-112.3175882 140.47439905 -113.9712411 140.92489437 -115.625 141.375 C-116.41390625 141.59671875 -117.2028125 141.8184375 -118.015625 142.046875 C-131.09950752 145.57744647 -144.03403158 146.37574386 -157.5 146.3125 C-158.28592529 146.31100952 -159.07185059 146.30951904 -159.8815918 146.3079834 C-180.95921715 146.2363199 -204.38752672 145.71086144 -221.59667969 131.91894531 C-224.64133878 128.22106395 -224.64788193 125.43063639 -224.48828125 120.85546875 C-224.48120651 120.08568192 -224.47413177 119.31589508 -224.46684265 118.52278137 C-224.43896925 116.07667697 -224.37625137 113.63290616 -224.3125 111.1875 C-224.28740768 109.52412173 -224.26459613 107.86070738 -224.24414062 106.19726562 C-224.18916671 102.13061843 -224.10294927 98.06570411 -224 94 C-219.17742452 94.7276956 -214.94726661 96.06527855 -210.4375 97.875 C-194.00284999 104.21783341 -177.8438676 105.18712453 -160.4074707 105.18530273 C-158.06898904 105.18749392 -155.7309773 105.20574539 -153.39257812 105.22460938 C-144.06460515 105.2581566 -135.2086389 104.63464223 -126 103 C-126 100.36 -126 97.72 -126 95 C-124.97261719 94.78085938 -123.94523437 94.56171875 -122.88671875 94.3359375 C-113.31326356 92.1892048 -103.73311097 89.96976652 -96.734375 82.62109375 C-93.67375427 77.67017973 -94.42571355 71.54303159 -94.5 65.9375 C-94.48453125 64.76638672 -94.4690625 63.59527344 -94.453125 62.38867188 C-94.46085937 60.69387695 -94.46085937 60.69387695 -94.46875 58.96484375 C-94.47551758 57.42751587 -94.47551758 57.42751587 -94.48242188 55.85913086 C-95.23550331 51.69906636 -97.29112679 49.18906295 -100.73925781 46.78979492 C-101.30483398 46.52271729 -101.87041016 46.25563965 -102.453125 45.98046875 C-103.071875 45.68076172 -103.690625 45.38105469 -104.328125 45.07226562 C-104.96234375 44.78029297 -105.5965625 44.48832031 -106.25 44.1875 C-106.8996875 43.87619141 -107.549375 43.56488281 -108.21875 43.24414062 C-109.80721971 42.48494554 -111.40291263 41.74089481 -113 41 C-112.15375038 34.93873708 -108.85116259 31.56326436 -105 27 C-104.33742188 26.19046875 -103.67484375 25.3809375 -102.9921875 24.546875 C-76.62136564 -6.39748424 -37.4897593 -10.41681021 0 0 Z " fill="#201631" transform="translate(288,57)"/>
<path d="M0 0 C0.71168335 -0.00394775 1.4233667 -0.00789551 2.15661621 -0.01196289 C13.79315016 -0.04190531 24.70399717 1.2058537 36.02539062 3.9375 C38.33418858 4.40559842 40.52776252 4.4627232 42.875 4.3125 C42.875 4.9725 42.875 5.6325 42.875 6.3125 C43.431875 6.45945312 43.98875 6.60640625 44.5625 6.7578125 C51.69567808 8.85438849 57.67795643 12.01693464 61.875 18.3125 C62.34472415 22.56804295 62.24535686 26.84634934 62.25 31.125 C62.27449219 32.30126953 62.29898438 33.47753906 62.32421875 34.68945312 C62.36125734 45.60966472 62.36125734 45.60966472 57.875 50.3125 C44.2032187 61.32188178 23.20630018 63.37225336 6.2421875 63.5859375 C5.33503998 63.59819366 4.42789246 63.61044983 3.49325562 63.62307739 C0.57880997 63.65494066 -2.33541426 63.6738317 -5.25 63.6875 C-6.23633423 63.69305908 -7.22266846 63.69861816 -8.2388916 63.7043457 C-22.81467835 63.74596533 -36.19033795 62.97961169 -50.125 58.3125 C-50.125 57.6525 -50.125 56.9925 -50.125 56.3125 C-51.445 56.3125 -52.765 56.3125 -54.125 56.3125 C-54.125 55.6525 -54.125 54.9925 -54.125 54.3125 C-54.99125 54.23 -55.8575 54.1475 -56.75 54.0625 C-61.92116722 52.91335173 -65.1935449 50.70968266 -68.125 46.3125 C-68.36791992 43.34155273 -68.36791992 43.34155273 -68.35546875 39.74609375 C-68.35353516 38.45638672 -68.35160156 37.16667969 -68.34960938 35.83789062 C-68.34340576 35.16733643 -68.33720215 34.49678223 -68.33081055 33.8059082 C-68.31253512 31.75394297 -68.31030109 29.70242882 -68.31054688 27.65039062 C-68.26526612 17.59303224 -68.26526612 17.59303224 -67.125 15.3125 C-66.465 15.3125 -65.805 15.3125 -65.125 15.3125 C-65.125 14.6525 -65.125 13.9925 -65.125 13.3125 C-64.485625 13.02375 -63.84625 12.735 -63.1875 12.4375 C-60.97293921 11.48426549 -60.97293921 11.48426549 -60.125 9.3125 C-57.47639573 8.71894386 -54.83302678 8.57040731 -52.125 8.3125 C-52.125 7.6525 -52.125 6.9925 -52.125 6.3125 C-49.56286446 5.66519196 -47.00031515 5.01960712 -44.4375 4.375 C-43.71626953 4.19259766 -42.99503906 4.01019531 -42.25195312 3.82226562 C-41.19331055 3.55639648 -41.19331055 3.55639648 -40.11328125 3.28515625 C-39.14708862 3.04164429 -39.14708862 3.04164429 -38.16137695 2.79321289 C-25.77713947 -0.13024516 -12.67159883 0.05189936 0 0 Z " fill="#8BC9CC" transform="translate(132.125,91.6875)"/>
<path d="M0 0 C3.87787981 0.96946995 6.90099555 1.94599758 10.4375 3.875 C38.67731478 18.45740917 82.18515932 14.45241399 111.75 6.12109375 C115.72888411 4.74857002 119.32635401 2.98914211 122.94921875 0.85546875 C125.41212963 -0.17191693 126.53793247 0.09409253 129 1 C129.85548511 9.06788261 130.09976732 16.96464327 129.75 25.0625 C129.72365479 25.87114502 129.69730957 26.67979004 129.67016602 27.51293945 C129.42712761 32.1152687 128.91641319 35.24433122 126 39 C113.13573697 50.43490047 91.57268835 53.14132001 74.90625 53.16796875 C73.78156311 53.17296135 73.78156311 53.17296135 72.63415527 53.17805481 C71.05428676 53.18308539 69.47440776 53.18546434 67.89453125 53.18530273 C65.53366502 53.18746911 63.17328265 53.2056106 60.8125 53.22460938 C40.32922705 53.30057955 16.32578895 51.78622178 0 38 C-1.20587804 34.38236588 -1.14332385 31.0698945 -1.1328125 27.3046875 C-1.13376923 26.55663849 -1.13472595 25.80858948 -1.13571167 25.03787231 C-1.13639143 23.45932938 -1.13455137 21.88078364 -1.13037109 20.30224609 C-1.1250049 17.87721545 -1.13033064 15.45236875 -1.13671875 13.02734375 C-1.13605823 11.49479126 -1.1347776 9.96223888 -1.1328125 8.4296875 C-1.13483673 7.70055145 -1.13686096 6.97141541 -1.13894653 6.22018433 C-1.1149618 1.1149618 -1.1149618 1.1149618 0 0 Z " fill="#378C93" transform="translate(65,198)"/>
<path d="M0 0 C0.60199219 0.3508667 1.20398438 0.7017334 1.82421875 1.06323242 C1.92354151 5.51059984 1.99589878 9.95736955 2.04394531 14.40551758 C2.06398666 15.91669978 2.0912278 17.42780515 2.12597656 18.9387207 C2.17482984 21.11843885 2.19726099 23.29712673 2.21484375 25.47729492 C2.23579102 26.78649902 2.25673828 28.09570312 2.27832031 29.44458008 C1.65571743 34.40598866 -0.40784031 37.49764616 -4.12109375 40.78588867 C-9.48961336 44.08589266 -14.89789244 46.10897572 -20.92578125 47.81323242 C-21.62719238 48.01182861 -22.32860352 48.2104248 -23.05126953 48.41503906 C-35.81453241 51.76586196 -48.56336734 52.43731579 -61.67578125 52.37573242 C-62.46170654 52.37424194 -63.24763184 52.37275146 -64.05737305 52.37121582 C-85.1349984 52.29955232 -108.56330797 51.77409386 -125.77246094 37.98217773 C-128.81712003 34.28429637 -128.82366318 31.49386881 -128.6640625 26.91870117 C-128.65698776 26.14891434 -128.64991302 25.3791275 -128.6426239 24.58601379 C-128.6147505 22.13990939 -128.55203262 19.69613858 -128.48828125 17.25073242 C-128.46318893 15.58735415 -128.44037738 13.9239398 -128.41992188 12.26049805 C-128.36494796 8.19385085 -128.27873052 4.12893654 -128.17578125 0.06323242 C-123.35320577 0.79092803 -119.12304786 2.12851097 -114.61328125 3.93823242 C-98.17863124 10.28106583 -82.01964885 11.25035695 -64.58325195 11.24853516 C-62.24477029 11.25072634 -59.90675855 11.26897781 -57.56835938 11.2878418 C-48.38131995 11.32282598 -39.16279263 11.20897236 -30.17578125 9.06323242 C-29.51578125 8.40323242 -28.85578125 7.74323242 -28.17578125 7.06323242 C-27.68078125 7.55823242 -27.68078125 7.55823242 -27.17578125 8.06323242 C-19.12985037 6.8285982 -12.14916708 3.83968159 -4.98828125 0.07495117 C-2.17578125 -0.93676758 -2.17578125 -0.93676758 0 0 Z " fill="#48BBC5" transform="translate(192.17578125,150.936767578125)"/>
<path d="M0 0 C0.70253906 0.00829834 1.40507812 0.01659668 2.12890625 0.02514648 C10.99907118 0.31309893 16.91148788 3.48221929 23.33203125 9.44140625 C29.41197948 16.21015036 31.57579536 23.65213843 31.46875 32.6171875 C30.60843123 39.67571197 27.601308 46.19536201 22.6875 51.3125 C21.15433064 52.82749721 21.15433064 52.82749721 20.125 54.4375 C20.68877655 58.17251967 21.46853596 59.78103596 24.125 62.4375 C24.125 63.4275 24.125 64.4175 24.125 65.4375 C22.86081754 66.13715443 21.58834598 66.82184763 20.3125 67.5 C19.60480469 67.88285156 18.89710938 68.26570313 18.16796875 68.66015625 C16.125 69.4375 16.125 69.4375 13.125 68.4375 C12.57328125 67.27605469 12.0215625 66.11460937 11.453125 64.91796875 C10.49395288 62.98533349 10.49395288 62.98533349 9.125 61.4375 C6.05752997 60.82713607 3.92005891 60.6437158 0.875 60.75 C-5.6098758 60.67008316 -10.5163259 60.44686767 -15.875 56.4375 C-16.48472656 56.0146875 -17.09445312 55.591875 -17.72265625 55.15625 C-23.403456 50.81423745 -27.61364869 44.5515214 -28.875 37.4375 C-29.60856048 27.94313155 -29.96282688 19.33331259 -23.875 11.4375 C-17.11101678 4.06665473 -10.24869035 -0.15674177 0 0 Z " fill="#F7F6F7" transform="translate(297.875,138.5625)"/>
<path d="M0 0 C4.76409271 2.69547351 7.22620585 6.12122327 9.328125 11.11328125 C9.328125 13.09328125 9.328125 15.07328125 9.328125 17.11328125 C4.708125 17.11328125 0.088125 17.11328125 -4.671875 17.11328125 C-5.331875 15.46328125 -5.991875 13.81328125 -6.671875 12.11328125 C-11.95387093 10.9134008 -11.95387093 10.9134008 -16.671875 13.11328125 C-16.92203373 16.69685366 -16.92203373 16.69685366 -16.671875 20.11328125 C-15.93324219 20.26023438 -15.19460937 20.4071875 -14.43359375 20.55859375 C-5.66806906 22.49658777 2.48852931 25.27368556 8.953125 31.73828125 C11.52148164 36.17453363 11.75516584 39.98879115 11.328125 45.11328125 C9.20183816 51.29569136 6.09349936 55.24413858 0.15625 58.19140625 C-6.63953656 60.40660739 -16.769253 60.46647583 -23.359375 57.61328125 C-27.31924221 55.13726672 -30.05773798 51.47455533 -31.671875 47.11328125 C-31.671875 45.13328125 -31.671875 43.15328125 -31.671875 41.11328125 C-27.381875 41.11328125 -23.091875 41.11328125 -18.671875 41.11328125 C-18.011875 42.43328125 -17.351875 43.75328125 -16.671875 45.11328125 C-12.97701397 47.57652194 -11.03894408 47.50319813 -6.671875 47.11328125 C-4.62736481 46.06954103 -4.62736481 46.06954103 -3.671875 44.11328125 C-3.6295369 42.44715242 -3.62552087 40.77930318 -3.671875 39.11328125 C-4.25155029 38.89712158 -4.83122559 38.68096191 -5.4284668 38.45825195 C-8.07758629 37.46135691 -10.71831398 36.44382346 -13.359375 35.42578125 C-14.27138672 35.08611328 -15.18339844 34.74644531 -16.12304688 34.39648438 C-22.59055198 31.88003693 -26.64724949 29.25494152 -30.484375 23.30078125 C-32.24596209 18.57231064 -32.69663892 14.67993533 -30.828125 10 C-24.44779815 -1.44578904 -12.06562212 -4.00423424 0 0 Z " fill="#F5F3F5" transform="translate(250.671875,139.88671875)"/>
<path d="M0 0 C4.29 0 8.58 0 13 0 C13 15.51 13 31.02 13 47 C19.93 47 26.86 47 34 47 C34 50.63 34 54.26 34 58 C22.78 58 11.56 58 0 58 C0 38.86 0 19.72 0 0 Z " fill="#FCFBFC" transform="translate(339,140)"/>
<path d="M0 0 C0.6290625 0.39832031 1.258125 0.79664063 1.90625 1.20703125 C20.67687985 12.82559882 42.20187064 14.41440183 63.8125 14.3125 C64.99214325 14.31026428 64.99214325 14.31026428 66.19561768 14.3079834 C83.207479 14.25011846 98.77682087 12.21364811 115 7 C119 11.75 119 11.75 119 14 C108.10800033 18.06441876 97.49404847 20.41518129 86 22 C84.81535156 22.185625 83.63070312 22.37125 82.41015625 22.5625 C75.93424977 23.34688097 69.38890896 23.2444197 62.875 23.25 C62.16779816 23.25067474 61.46059631 23.25134949 60.73196411 23.25204468 C39.46746336 23.219948 20.06357325 20.8983938 1 11 C0.01 11 -0.98 11 -2 11 C-1.835 10.236875 -1.67 9.47375 -1.5 8.6875 C-0.90854604 5.96403764 -0.90854604 5.96403764 -1 3 C-0.67 2.01 -0.34 1.02 0 0 Z " fill="#EEFBFC" transform="translate(66,188)"/>
<path d="M0 0 C4.73497175 3.05142624 8.41596363 6.2263545 9.8125 11.8125 C10.69015838 18.72574758 9.03593825 23.72538224 5.8125 29.8125 C5.1525 29.8125 4.4925 29.8125 3.8125 29.8125 C2.4925 27.5025 1.1725 25.1925 -0.1875 22.8125 C-3.74530196 23.42240891 -6.8703589 24.3908681 -10.1875 25.8125 C-9.6925 26.76125 -9.1975 27.71 -8.6875 28.6875 C-7.1875 31.8125 -7.1875 31.8125 -7.1875 33.8125 C-10.21712193 34.25585931 -12.37443848 34.30651206 -15.0390625 32.6875 C-19.55006674 29.00191356 -22.76825263 25.42629425 -23.46484375 19.421875 C-23.72300057 12.52392484 -22.39592343 8.30405464 -17.75 3.0625 C-12.25598479 -1.76151335 -6.87977387 -2.56305301 0 0 Z " fill="#211832" transform="translate(305.1875,152.1875)"/>
<path d="M0 0 C3.3 0.99 6.6 1.98 10 3 C10 3.66 10 4.32 10 5 C11.32 5 12.64 5 14 5 C14 5.66 14 6.32 14 7 C14.75023438 7.12117187 15.50046875 7.24234375 16.2734375 7.3671875 C17.29695313 7.53476563 18.32046875 7.70234375 19.375 7.875 C20.37273437 8.03742188 21.37046875 8.19984375 22.3984375 8.3671875 C24.33331329 8.70715483 26.2671764 9.06009499 28.18380737 9.49119568 C34.23570053 10.83233469 39.92278329 11.28174699 46.109375 11.23046875 C47.03864807 11.23001053 47.96792114 11.22955231 48.925354 11.2290802 C50.878309 11.22608035 52.83126209 11.2182629 54.78417969 11.20581055 C57.7286048 11.18763209 60.67271221 11.18530093 63.6171875 11.18554688 C73.78952089 11.16590792 83.86484604 10.94298167 94 10 C94.495 13.465 94.495 13.465 95 17 C85.27835614 20.73909379 74.90350076 20.15756286 64.65429688 20.13037109 C62.26946563 20.12504349 59.88482529 20.1303238 57.5 20.13671875 C35.56981384 20.14897535 17.05529487 16.93577593 -3 8 C0.09773244 7.15937603 2.78332751 6.91064799 6 7 C6 6.34 6 5.68 6 5 C3.03 4.505 3.03 4.505 0 4 C0 2.68 0 1.36 0 0 Z " fill="#F5FBFC" transform="translate(68,143)"/>
<path d="M0 0 C0.6290625 0.39832031 1.258125 0.79664063 1.90625 1.20703125 C22.40058714 13.8925321 45.57014098 14.32750857 69 14.125 C71.04687058 14.11494087 73.09374599 14.10582025 75.140625 14.09765625 C80.09387219 14.07589645 85.04688076 14.04153157 90 14 C84.20613716 17.86257523 77.09355675 17.138109 70.34765625 17.09765625 C69.44752304 17.0962413 68.54738983 17.09482635 67.61997986 17.09336853 C64.76745163 17.0878066 61.91500419 17.07526127 59.0625 17.0625 C57.11914176 17.05748008 55.17578229 17.05291803 53.23242188 17.04882812 C48.4882505 17.03784966 43.74413891 17.02061153 39 17 C39.495 18.98 39.495 18.98 40 21 C52.54 21.33 65.08 21.66 78 22 C78 22.33 78 22.66 78 23 C51.13590088 23.49410482 25.44308161 23.69160007 1 11 C0.01 11 -0.98 11 -2 11 C-1.835 10.236875 -1.67 9.47375 -1.5 8.6875 C-0.90854604 5.96403764 -0.90854604 5.96403764 -1 3 C-0.67 2.01 -0.34 1.02 0 0 Z " fill="#E1F6F7" transform="translate(66,188)"/>
<path d="M0 0 C3.45290508 0.52200773 6.67898309 1.09705989 9.9453125 2.33984375 C10.62980469 2.59830078 11.31429687 2.85675781 12.01953125 3.12304688 C12.71433594 3.39181641 13.40914062 3.66058594 14.125 3.9375 C15.17880859 4.33485352 15.17880859 4.33485352 16.25390625 4.74023438 C19.58802511 6.01022483 22.85340387 7.31257668 26 9 C20.30948637 8.4618629 14.65134116 7.8599867 9 7 C8.67 7.66 8.34 8.32 8 9 C6.02 9 4.04 9 2 9 C2 17.91 2 26.82 2 36 C3.65 36.66 5.3 37.32 7 38 C7 38.66 7 39.32 7 40 C8.98 40.33 10.96 40.66 13 41 C13 41.66 13 42.32 13 43 C14.98567708 42.93489583 16.97135417 42.86979167 18.95703125 42.8046875 C21 43 21 43 24 45 C26.56882779 45.59720246 29.09349359 46.11230054 31.6875 46.5625 C32.37005859 46.68818359 33.05261719 46.81386719 33.75585938 46.94335938 C41.47179757 48.33499695 48.96824622 49.15363619 56.8046875 49.1328125 C57.60987823 49.13376923 58.41506897 49.13472595 59.24465942 49.13571167 C60.93035969 49.13638717 62.61606266 49.13457724 64.30175781 49.13037109 C66.88873031 49.12497134 69.47553252 49.13035896 72.0625 49.13671875 C73.70572955 49.13605868 75.34895899 49.134779 76.9921875 49.1328125 C78.15305374 49.13584885 78.15305374 49.13584885 79.33737183 49.13894653 C83.29786481 49.20539121 83.29786481 49.20539121 87 48 C89.14059443 47.65342757 91.28782769 47.34739633 93.4375 47.0625 C98.07025009 46.41773581 102.69853913 45.76899348 107.3125 45 C108.19550781 44.855625 109.07851562 44.71125 109.98828125 44.5625 C110.65214844 44.376875 111.31601563 44.19125 112 44 C112.495 43.01 112.495 43.01 113 42 C113.66 42.66 114.32 43.32 115 44 C103.11158897 50.1958121 89.40745045 52.11684901 76.1171875 52.203125 C75.02417831 52.21357849 75.02417831 52.21357849 73.90908813 52.22424316 C71.56433277 52.24155797 69.21981667 52.24796478 66.875 52.25 C66.07408936 52.25100708 65.27317871 52.25201416 64.44799805 52.25305176 C43.25753021 52.23504526 19.71909222 51.79630895 2.40332031 37.91894531 C-0.64133878 34.22106395 -0.64788193 31.43063639 -0.48828125 26.85546875 C-0.48120651 26.08568192 -0.47413177 25.31589508 -0.46684265 24.52278137 C-0.43896925 22.07667697 -0.37625137 19.63290616 -0.3125 17.1875 C-0.28740768 15.52412173 -0.26459613 13.86070738 -0.24414062 12.19726562 C-0.18916671 8.13061843 -0.10294927 4.06570411 0 0 Z " fill="#5EB5B9" transform="translate(64,151)"/>
<path d="M0 0 C0.66 0.33 1.32 0.66 2 1 C2 1.99 2 2.98 2 4 C2.804375 4.144375 3.60875 4.28875 4.4375 4.4375 C7 5 7 5 8 6 C8.08868299 8.95705321 8.11520296 11.89065056 8.09765625 14.84765625 C8.0962413 15.7340831 8.09482635 16.62050995 8.09336853 17.53379822 C8.08775215 20.37673254 8.07519691 23.21958931 8.0625 26.0625 C8.05748711 27.98502491 8.05292384 29.90755104 8.04882812 31.83007812 C8.03777741 36.55341549 8.02050183 41.27669458 8 46 C7.34 46 6.68 46 6 46 C6 46.66 6 47.32 6 48 C4.515 48.495 4.515 48.495 3 49 C4.32 49.33 5.64 49.66 7 50 C7 51.98 7 53.96 7 56 C3.56484998 56.62457273 0.50935186 57 -3 57 C-6 53.78571429 -6 53.78571429 -6 51 C-5.38511719 50.69707031 -4.77023438 50.39414063 -4.13671875 50.08203125 C-3.32847656 49.66308594 -2.52023438 49.24414062 -1.6875 48.8125 C-0.88699219 48.40644531 -0.08648437 48.00039062 0.73828125 47.58203125 C3.53704649 45.62434572 4.51957736 44.08473881 6 41 C6.41179707 37.42097566 6.41179707 37.42097566 6.29296875 33.51171875 C6.28660149 32.4569207 6.28660149 32.4569207 6.28010559 31.3808136 C6.2634006 29.14930869 6.22576614 26.91872887 6.1875 24.6875 C6.17244248 23.1686329 6.15875594 21.64975154 6.14648438 20.13085938 C6.11352473 16.42027566 6.06180016 12.71022822 6 9 C1.54619916 9 -0.56281795 10.00699207 -4.5625 11.875 C-10.60804189 14.61167161 -16.41020006 16.21998286 -23 17 C-24.25664978 14.09399739 -25 12.20395416 -25 9 C-23.94941406 8.76925781 -22.89882812 8.53851563 -21.81640625 8.30078125 C-14.49738126 6.62310524 -7.96106554 5.04193697 -1.6015625 0.85546875 C-0.80878906 0.43201172 -0.80878906 0.43201172 0 0 Z " fill="#131B35" transform="translate(187,143)"/>
<path d="M0 0 C7.72624757 7.63001317 14.89694853 15.79150675 22 24 C21.34 24.99 20.68 25.98 20 27 C16.4375 27.25 16.4375 27.25 13 27 C12 26 12 26 11.90234375 24.15234375 C11.93489583 22.1015625 11.96744792 20.05078125 12 18 C9.69 18.33 7.38 18.66 5 19 C5 18.34 5 17.68 5 17 C5.66 17 6.32 17 7 17 C6.39816251 14.97954558 5.72693904 12.97888961 5 11 C4.34 10.67 3.68 10.34 3 10 C2.87882812 10.83144531 2.75765625 11.66289062 2.6328125 12.51953125 C2.46523437 13.60621094 2.29765625 14.69289062 2.125 15.8125 C1.96257812 16.89144531 1.80015625 17.97039062 1.6328125 19.08203125 C0.74435193 23.17882167 -0.51828613 24.67885742 -4 27 C-4.309375 27.639375 -4.61875 28.27875 -4.9375 28.9375 C-6.29554272 31.57370057 -7.3843203 32.58611908 -10 34 C-13.75 34.1875 -13.75 34.1875 -17 34 C-17.495 32.515 -17.495 32.515 -18 31 C-17.12988281 30.63648438 -17.12988281 30.63648438 -16.2421875 30.265625 C-6.8926106 26.58693081 -6.8926106 26.58693081 -1 19 C-0.63991339 16.78395837 -0.63991339 16.78395837 -0.5859375 14.453125 C-0.54726562 13.60878906 -0.50859375 12.76445312 -0.46875 11.89453125 C-0.4378125 11.02183594 -0.406875 10.14914063 -0.375 9.25 C-0.33632812 8.36183594 -0.29765625 7.47367188 -0.2578125 6.55859375 C-0.16379127 4.3726002 -0.07813857 2.18660938 0 0 Z M-14 34 C-12 35 -12 35 -12 35 Z " fill="#EDF0EF" transform="translate(194,213)"/>
<path d="M0 0 C5.92651057 -0.02469854 11.85299125 -0.04285931 17.77954102 -0.05493164 C19.79614789 -0.05996382 21.8127511 -0.06679014 23.8293457 -0.07543945 C26.72608339 -0.08755373 29.62277288 -0.09323943 32.51953125 -0.09765625 C33.42274612 -0.10281754 34.325961 -0.10797882 35.25654602 -0.11329651 C36.5175135 -0.11340981 36.5175135 -0.11340981 37.80395508 -0.11352539 C38.54341873 -0.115746 39.28288239 -0.11796661 40.04475403 -0.12025452 C42 0 42 0 45 1 C45 1.66 45 2.32 45 3 C45.99 3.33 46.98 3.66 48 4 C40.69176769 6.3054648 33.74486765 6.26377897 26.125 6.1875 C24.90941406 6.18685547 23.69382812 6.18621094 22.44140625 6.18554688 C15.56967684 6.15218897 8.81998131 5.85569791 2 5 C2 4.34 2 3.68 2 3 C1.34 2.67 0.68 2.34 0 2 C0 1.34 0 0.68 0 0 Z " fill="#F8FDFC" transform="translate(104,204)"/>
<path d="M0 0 C0 3 0 3 -1 5 C-2.98 5 -4.96 5 -7 5 C-6.505 6.485 -6.505 6.485 -6 8 C-7.32 8 -8.64 8 -10 8 C-10 7.34 -10 6.68 -10 6 C-11.5778125 6.2475 -11.5778125 6.2475 -13.1875 6.5 C-16.21375612 6.89688605 -18.96790776 7 -22 7 C-22.99 7.33 -23.98 7.66 -25 8 C-25 7.34 -25 6.68 -25 6 C-27.97 6.99 -30.94 7.98 -34 9 C-34 8.34 -34 7.68 -34 7 C-34.598125 7.20625 -35.19625 7.4125 -35.8125 7.625 C-38 8 -38 8 -41 6 C-44.25342124 5.68399441 -47.46248231 5.53673383 -50.7265625 5.43359375 C-52.48852992 5.35444287 -54.24590082 5.18420135 -56 5 C-56.33 4.34 -56.66 3.68 -57 3 C-55.49771851 2.97812622 -55.49771851 2.97812622 -53.96508789 2.95581055 C-50.16073188 2.89674822 -46.35690329 2.81955095 -42.55297852 2.73754883 C-40.92318437 2.70479637 -39.29329024 2.67661976 -37.66333008 2.65356445 C-28.05210513 2.51409932 -18.85165365 1.93475543 -9.42652893 -0.05574036 C-5.99296091 -0.76382923 -3.33404019 -1.28150338 0 0 Z M-6 6 C-4.35 6 -2.7 6 -1 6 C-1 6.33 -1 6.66 -1 7 C-2.65 7 -4.3 7 -6 7 C-6 6.67 -6 6.34 -6 6 Z " fill="#F1F5F6" transform="translate(169,248)"/>
<path d="M0 0 C0.67546875 0.40992188 1.3509375 0.81984375 2.046875 1.2421875 C2.93890625 1.78101563 3.8309375 2.31984375 4.75 2.875 C5.63171875 3.40867188 6.5134375 3.94234375 7.421875 4.4921875 C9.90193338 6.00632902 9.90193338 6.00632902 12.265625 7.0078125 C14 8 14 8 15 11 C17.00016466 12.20882096 17.00016466 12.20882096 19 13 C19 13.66 19 14.32 19 15 C15.95613276 15.08226668 13.92824652 14.97608217 11 14 C10.2575 13.855625 9.515 13.71125 8.75 13.5625 C5.41086359 12.87949483 2.22376123 12.11591735 -1 11 C-2 8 -2 8 -1 5.9375 C-0.67 5.298125 -0.34 4.65875 0 4 C-0.33 3.34 -0.66 2.68 -1 2 C-0.67 1.34 -0.34 0.68 0 0 Z " fill="#ECF8F7" transform="translate(66,188)"/>
<path d="M0 0 C3.3 0 6.6 0 10 0 C10 0.99 10 1.98 10 3 C12.31 3 14.62 3 17 3 C17 2.34 17 1.68 17 1 C25.25 1 33.5 1 42 1 C42 1.66 42 2.32 42 3 C33.98603754 3.6466598 26.04212755 4.16677223 18 4 C17.67 4.66 17.34 5.32 17 6 C13.04 6 9.08 6 5 6 C5 5.34 5 4.68 5 4 C3.35 3.67 1.7 3.34 0 3 C0 2.01 0 1.02 0 0 Z " fill="#F8FCFE" transform="translate(102,155)"/>
<path d="M0 0 C2 2 2 2 2.125 4.625 C2.08375 5.40875 2.0425 6.1925 2 7 C1.34 7 0.68 7 0 7 C-0.33 7.66 -0.66 8.32 -1 9 C-1.66 9.66 -2.32 10.32 -3 11 C-5.76384076 10.78739686 -7.52393621 10.32831986 -9.8125 8.75 C-11.46958135 6.30798538 -11.50545979 4.88834165 -11 2 C-7.75218562 -1.89737726 -4.62190328 -1.11268042 0 0 Z " fill="#241C33" transform="translate(244,151)"/>
<path d="M0 0 C1.56561715 0.04982573 3.13356517 0.03865789 4.69921875 -0.01000977 C5.65030518 -0.03656143 6.6013916 -0.0631131 7.58129883 -0.09046936 C8.60634521 -0.12377853 9.6313916 -0.15708771 10.6875 -0.19140625 C12.85155522 -0.24962013 15.01561798 -0.30755429 17.1796875 -0.36523438 C20.59681663 -0.46245175 24.01378871 -0.56292685 27.43066406 -0.66870117 C30.72442771 -0.76857689 34.0183395 -0.85578212 37.3125 -0.94140625 C38.85006958 -0.99440636 38.85006958 -0.99440636 40.41870117 -1.04847717 C41.3697876 -1.07187668 42.32087402 -1.09527618 43.30078125 -1.11938477 C44.13778564 -1.14460709 44.97479004 -1.16982941 45.8371582 -1.19581604 C48 -1 48 -1 51 1 C52.98799818 1.70164642 54.98698517 2.37372872 57 3 C53.71392394 4.07574266 51.60505216 3.86292931 48.265625 3.07421875 C41.47150504 1.73410451 34.78470008 1.73367093 27.89501953 1.79418945 C25.76712851 1.81235379 23.63967913 1.81469879 21.51171875 1.81445312 C9.48168234 1.84410025 -2.64552128 1.97949514 -14.4375 4.5625 C-15.69433594 4.83191406 -16.95117188 5.10132812 -18.24609375 5.37890625 C-19.15488281 5.58386719 -20.06367187 5.78882812 -21 6 C-20 4 -20 4 -17.93359375 3.1484375 C-16.69802734 2.76558594 -16.69802734 2.76558594 -15.4375 2.375 C-14.61121094 2.11460938 -13.78492187 1.85421875 -12.93359375 1.5859375 C-12.29550781 1.39257812 -11.65742187 1.19921875 -11 1 C-11 0.67 -11 0.34 -11 0 C-3.375 -1.125 -3.375 -1.125 0 0 Z " fill="#D8F0F0" transform="translate(107,91)"/>
<path d="M0 0 C0.66 0.33 1.32 0.66 2 1 C2.43837085 18.12081696 2.43837085 18.12081696 0 24 C-2 25.8125 -2 25.8125 -4 27 C-4.33 27.66 -4.66 28.32 -5 29 C-6.30996892 31.61993783 -7.41731291 32.60395293 -10 34 C-13.75 34.1875 -13.75 34.1875 -17 34 C-17.495 32.515 -17.495 32.515 -18 31 C-17.12988281 30.63648438 -17.12988281 30.63648438 -16.2421875 30.265625 C-6.8926106 26.58693081 -6.8926106 26.58693081 -1 19 C-0.63991339 16.78395837 -0.63991339 16.78395837 -0.5859375 14.453125 C-0.54726562 13.60878906 -0.50859375 12.76445312 -0.46875 11.89453125 C-0.4378125 11.02183594 -0.406875 10.14914063 -0.375 9.25 C-0.33632812 8.36183594 -0.29765625 7.47367188 -0.2578125 6.55859375 C-0.16379127 4.3726002 -0.07813857 2.18660938 0 0 Z M-14 34 C-12 35 -12 35 -12 35 Z " fill="#E8F3F5" transform="translate(194,213)"/>
<path d="M0 0 C5.04196017 0.64012347 9.41993093 2.11745009 14.125 3.9375 C15.17880859 4.33485352 15.17880859 4.33485352 16.25390625 4.74023438 C19.58802511 6.01022483 22.85340387 7.31257668 26 9 C20.30948637 8.4618629 14.65134116 7.8599867 9 7 C8.67 7.66 8.34 8.32 8 9 C5.69 9 3.38 9 1 9 C0.67 6.03 0.34 3.06 0 0 Z " fill="#58B5BE" transform="translate(64,151)"/>
<path d="M0 0 C0.33 0.66 0.66 1.32 1 2 C1.99 2.33 2.98 2.66 4 3 C4.33 4.98 4.66 6.96 5 9 C4.34 9 3.68 9 3 9 C3.04125 10.093125 3.0825 11.18625 3.125 12.3125 C3 16 3 16 1 19 C0.01 19 -0.98 19 -2 19 C-3.07455502 15.77633495 -2.93337394 14.91705406 -2.125 11.75 C-1.17702709 7.83640913 -0.5097369 3.99293907 0 0 Z M-6 17 C-5.01 17.33 -4.02 17.66 -3 18 C-3.66 19.65 -4.32 21.3 -5 23 C-5.66 23 -6.32 23 -7 23 C-7.042721 21.33388095 -7.04063832 19.66617115 -7 18 C-6.67 17.67 -6.34 17.34 -6 17 Z " fill="#F8F2F5" transform="translate(196,221)"/>
<path d="M0 0 C2.58090158 6.75385356 2.05223347 13.17862717 1.6875 20.3125 C1.63916016 21.50423828 1.59082031 22.69597656 1.54101562 23.92382812 C1.14704363 32.70591274 1.14704363 32.70591274 0 35 C0.66 35 1.32 35 2 35 C2 35.66 2 36.32 2 37 C1.01 36.67 0.02 36.34 -1 36 C-1.01981934 35.11739502 -1.03963867 34.23479004 -1.06005859 33.32543945 C-1.13837866 30.03578043 -1.22507855 26.74656036 -1.31738281 23.45727539 C-1.35555149 22.0364627 -1.39042513 20.61555737 -1.421875 19.19458008 C-1.46779065 17.14631145 -1.52573805 15.09867392 -1.5859375 13.05078125 C-1.6173584 11.82012939 -1.6487793 10.58947754 -1.68115234 9.3215332 C-1.98595035 6.14635945 -2.64442201 3.86573943 -4 1 C-2 0 -2 0 0 0 Z " fill="#0C162A" transform="translate(195,104)"/>
<path d="M0 0 C5.445 0.495 5.445 0.495 11 1 C10.67 1.66 10.34 2.32 10 3 C-0.70185926 5.69377916 -11.93124551 5.24116643 -22.875 5.125 C-24.54556748 5.1149383 -26.21614091 5.10581815 -27.88671875 5.09765625 C-31.92462978 5.07592258 -35.96224652 5.04157357 -40 5 C-40 4.67 -40 4.34 -40 4 C-38.76866333 3.96241577 -38.76866333 3.96241577 -37.51245117 3.92407227 C-34.41291561 3.82788655 -31.31349195 3.72873189 -28.21411133 3.62768555 C-26.23460818 3.56401523 -24.25499969 3.50364702 -22.27539062 3.44335938 C-14.81801687 3.19792682 -7.42049236 2.78859059 0 2 C0 1.34 0 0.68 0 0 Z " fill="#D4F9F8" transform="translate(152,158)"/>
<path d="M0 0 C0.598125 0.226875 1.19625 0.45375 1.8125 0.6875 C1.8125 1.3475 1.8125 2.0075 1.8125 2.6875 C0.8225 2.6875 -0.1675 2.6875 -1.1875 2.6875 C-1.1875 3.3475 -1.1875 4.0075 -1.1875 4.6875 C-2.1775 5.1825 -2.1775 5.1825 -3.1875 5.6875 C-3.33303599 9.58293877 -3.42165059 13.47767651 -3.5 17.375 C-3.54189453 18.47779297 -3.58378906 19.58058594 -3.62695312 20.71679688 C-3.85502562 27.25226051 -3.85502562 27.25226051 -0.73046875 32.76953125 C0.10871094 33.40246094 0.94789062 34.03539062 1.8125 34.6875 C2.1425 35.6775 2.4725 36.6675 2.8125 37.6875 C-1.13520227 36.40716413 -3.09137737 35.29631567 -5.1875 31.6875 C-5.57568359 28.61889648 -5.57568359 28.61889648 -5.5859375 25.05859375 C-5.58980469 23.77662109 -5.59367187 22.49464844 -5.59765625 21.17382812 C-5.59137207 20.50939697 -5.58508789 19.84496582 -5.57861328 19.16040039 C-5.56252167 17.12773777 -5.57849235 15.09705499 -5.59765625 13.06445312 C-5.59378906 11.78376953 -5.58992188 10.50308594 -5.5859375 9.18359375 C-5.58255371 8.00982178 -5.57916992 6.8360498 -5.57568359 5.62670898 C-5.1875 2.6875 -5.1875 2.6875 -3.79931641 0.76196289 C-2.1875 -0.3125 -2.1875 -0.3125 0 0 Z " fill="#97C5C6" transform="translate(69.1875,106.3125)"/>
<path d="M0 0 C10.56 0 21.12 0 32 0 C32 0.66 32 1.32 32 2 C21.69163778 2.88047772 11.27541468 3.63893577 1 2 C0.67 1.34 0.34 0.68 0 0 Z " fill="#D5F4F5" transform="translate(112,251)"/>
<path d="M0 0 C0 3 0 3 -1 4.9375 C-2.290849 7.21785272 -2.290849 7.21785272 -2 11 C-2.66 11 -3.32 11 -4 11 C-5.1490712 12.9254644 -5.1490712 12.9254644 -5 15 C-6.65 14.67 -8.3 14.34 -10 14 C-10.33 14.66 -10.66 15.32 -11 16 C-11.66 15.34 -12.32 14.68 -13 14 C-8.71 9.38 -4.42 4.76 0 0 Z " fill="#2C253A" transform="translate(193,73)"/>
<path d="M0 0 C1.11375 0.4640625 1.11375 0.4640625 2.25 0.9375 C6.9202708 2.89999849 6.9202708 2.89999849 11.75 2.0625 C12.4925 1.711875 13.235 1.36125 14 1 C14.33 2.32 14.66 3.64 15 5 C13.73581754 5.69965443 12.46334598 6.38434763 11.1875 7.0625 C10.47980469 7.44535156 9.77210938 7.82820312 9.04296875 8.22265625 C7 9 7 9 4 8 C2.83203125 6.15234375 2.83203125 6.15234375 1.8125 3.9375 C1.46832031 3.20402344 1.12414062 2.47054687 0.76953125 1.71484375 C0.51558594 1.14894531 0.26164062 0.58304688 0 0 Z " fill="#F1EDF5" transform="translate(307,199)"/>
<path d="M0 0 C0.825 0.19335938 1.65 0.38671875 2.5 0.5859375 C11.63390395 2.64514352 20.70145362 3.97353709 30 5 C30 5.33 30 5.66 30 6 C27.36 6 24.72 6 22 6 C22 6.66 22 7.32 22 8 C22.66 8.33 23.32 8.66 24 9 C21.62679886 8.4523382 19.37179179 7.78614189 17.0625 7 C14.15470143 5.97805619 14.15470143 5.97805619 11.6875 5.5625 C7.67975609 4.72366988 3.86491893 3.33882813 0 2 C0 1.34 0 0.68 0 0 Z " fill="#4A8F92" transform="translate(82,205)"/>
<path d="M0 0 C1.75032844 0.14183696 3.50025534 0.28863429 5.25 0.4375 C6.71179688 0.55931641 6.71179688 0.55931641 8.203125 0.68359375 C10.56461753 0.95074584 12.71901065 1.35371968 15 2 C15 2.66 15 3.32 15 4 C19.32448133 4.73832608 23.65535464 5.39174965 28 6 C28 6.33 28 6.66 28 7 C22.08646512 7.19421575 16.92642407 6.58044274 11.1875 5.1875 C10.43791016 5.02185547 9.68832031 4.85621094 8.91601562 4.68554688 C2.25276164 3.10756447 2.25276164 3.10756447 0 0 Z " fill="#CDF4F6" transform="translate(79,155)"/>
<path d="M0 0 C1.32 0.33 2.64 0.66 4 1 C4 1.66 4 2.32 4 3 C2.35 3.33 0.7 3.66 -1 4 C-1 4.66 -1 5.32 -1 6 C-4.82320557 7.42258812 -7.91281305 8.24042276 -12 8 C-12 7.01 -12 6.02 -12 5 C-9.31912713 3.39147628 -7.47959733 2.92943693 -4.3125 2.5 C-3.219375 2.335 -2.12625 2.17 -1 2 C-0.67 1.34 -0.34 0.68 0 0 Z " fill="#FBFBFB" transform="translate(179,197)"/>
<path d="M0 0 C0 0.66 0 1.32 0 2 C0.66 1.67 1.32 1.34 2 1 C4.3329866 0.95977609 6.66706666 0.95679753 9 1 C8.67 1.66 8.34 2.32 8 3 C4.39590081 3.05800828 0.79192149 3.09359869 -2.8125 3.125 C-4.34874023 3.15013672 -4.34874023 3.15013672 -5.91601562 3.17578125 C-6.89892578 3.18222656 -7.88183594 3.18867188 -8.89453125 3.1953125 C-9.80050049 3.20578613 -10.70646973 3.21625977 -11.63989258 3.22705078 C-14 3 -14 3 -17 1 C-5.47835991 -0.14806378 -5.47835991 -0.14806378 0 0 Z " fill="#448689" transform="translate(126,248)"/>
<path d="M0 0 C2.12168487 3.49453978 2.12168487 3.49453978 1.59375 5.6875 C1.3978125 6.450625 1.201875 7.21375 1 8 C0.77882441 10.4138176 0.59427758 12.83114597 0.4375 15.25 C0.35371094 16.51328125 0.26992187 17.7765625 0.18359375 19.078125 C0.12300781 20.04234375 0.06242188 21.0065625 0 22 C-0.66 22 -1.32 22 -2 22 C-2.05790353 18.70840684 -2.09356261 15.41694397 -2.125 12.125 C-2.14175781 11.18785156 -2.15851563 10.25070313 -2.17578125 9.28515625 C-2.18544922 7.94130859 -2.18544922 7.94130859 -2.1953125 6.5703125 C-2.20578613 5.74289551 -2.21625977 4.91547852 -2.22705078 4.06298828 C-2 2 -2 2 0 0 Z " fill="#171B2C" transform="translate(200,153)"/>
<path d="M0 0 C1.26328125 0.01804688 2.5265625 0.03609375 3.828125 0.0546875 C4.79234375 0.07789063 5.7565625 0.10109375 6.75 0.125 C6.75 0.785 6.75 1.445 6.75 2.125 C2.49938644 3.54187119 0.03148375 2.31820039 -4.25 1.125 C-4.25 2.115 -4.25 3.105 -4.25 4.125 C-6.25 6.125 -6.25 6.125 -8.875 6.25 C-9.65875 6.20875 -10.4425 6.1675 -11.25 6.125 C-11.25 4.805 -11.25 3.485 -11.25 2.125 C-7.54583874 -0.25090142 -4.32015427 -0.08000286 0 0 Z " fill="#1B1228" transform="translate(253.25,156.875)"/>
<path d="M0 0 C1.670625 0.061875 1.670625 0.061875 3.375 0.125 C3.705 1.115 4.035 2.105 4.375 3.125 C5.035 3.125 5.695 3.125 6.375 3.125 C6.705 2.135 7.035 1.145 7.375 0.125 C7.705 0.785 8.035 1.445 8.375 2.125 C7.055 3.445 5.735 4.765 4.375 6.125 C3.715 5.795 3.055 5.465 2.375 5.125 C0.69845271 5.40442455 -0.97108154 5.73328247 -2.625 6.125 C-3.615 4.805 -4.605 3.485 -5.625 2.125 C-3.625 0.125 -3.625 0.125 0 0 Z " fill="#1B112E" transform="translate(302.625,167.875)"/>
<path d="M0 0 C0.66 0.33 1.32 0.66 2 1 C2.99 0.67 3.98 0.34 5 0 C5 0.66 5 1.32 5 2 C5.66 2 6.32 2 7 2 C7.33 3.98 7.66 5.96 8 8 C6.5410574 7.52269162 5.08286504 7.04308958 3.625 6.5625 C2.81289063 6.29566406 2.00078125 6.02882813 1.1640625 5.75390625 C-1 5 -1 5 -3 4 C-3 3.34 -3 2.68 -3 2 C-2.01 2 -1.02 2 0 2 C0 1.34 0 0.68 0 0 Z " fill="#271F35" transform="translate(280,289)"/>
<path d="M0 0 C0.33 1.32 0.66 2.64 1 4 C0.01 4.495 0.01 4.495 -1 5 C-1.65213292 7.02463255 -1.65213292 7.02463255 -2 9 C-3.65 9 -5.3 9 -7 9 C-7.125 6.125 -7.125 6.125 -7 3 C-4.64046906 0.64046906 -3.22104383 0.50858587 0 0 Z " fill="#45BEC4" transform="translate(190,182)"/>
<path d="M0 0 C-6.83794704 4.55863136 -15.57686948 2.93559048 -23.4375 2.5625 C-25.25024414 2.48418945 -25.25024414 2.48418945 -27.09960938 2.40429688 C-30.06671084 2.27529246 -33.03341748 2.1403565 -36 2 C-36 1.67 -36 1.34 -36 1 C-31.50008666 0.83093851 -27.00005734 0.66518068 -22.5 0.5 C-21.2315625 0.45230469 -19.963125 0.40460938 -18.65625 0.35546875 C-12.43313793 0.12858446 -6.22729901 -0.06290201 0 0 Z " fill="#CDF1F4" transform="translate(156,202)"/>
<path d="M0 0 C0.99 0.99 1.98 1.98 3 3 C3.99 2.34 4.98 1.68 6 1 C5.814375 1.61875 5.62875 2.2375 5.4375 2.875 C4.76313824 5.04160178 4.76313824 5.04160178 6 7 C6.66 7.33 7.32 7.66 8 8 C7.34 9.32 6.68 10.64 6 12 C5.34 12 4.68 12 4 12 C3.0234375 10.2421875 2.046875 8.484375 1.0703125 6.7265625 C-0.00897274 4.8387386 -0.00897274 4.8387386 -2 3 C-1.34 3 -0.68 3 0 3 C0 2.01 0 1.02 0 0 Z " fill="#272139" transform="translate(305,170)"/>
<path d="M0 0 C9.9 0 19.8 0 30 0 C30 0.33 30 0.66 30 1 C22.41 1 14.82 1 7 1 C7 1.66 7 2.32 7 3 C4.69 3 2.38 3 0 3 C0 2.01 0 1.02 0 0 Z " fill="#D4EFF0" transform="translate(112,155)"/>
<path d="M0 0 C3 4 3 4 3 6 C2.34 6 1.68 6 1 6 C1 13.92 1 21.84 1 30 C2.32 30 3.64 30 5 30 C5 30.66 5 31.32 5 32 C3.515 32.495 3.515 32.495 2 33 C2 32.34 2 31.68 2 31 C1.34 31 0.68 31 0 31 C0 20.77 0 10.54 0 0 Z " fill="#3C8186" transform="translate(64,202)"/>
<path d="M0 0 C7.81636537 1.91722169 7.81636537 1.91722169 10 5 C10 5.66 10 6.32 10 7 C7.36 6.67 4.72 6.34 2 6 C2 5.34 2 4.68 2 4 C1.01 4 0.02 4 -1 4 C-0.67 2.68 -0.34 1.36 0 0 Z " fill="#4E8D95" transform="translate(65,198)"/>
<path d="M0 0 C5.625 -0.25 5.625 -0.25 9 2 C11.64017635 2.81779841 14.30270591 3.3809489 17 4 C17 4.66 17 5.32 17 6 C12.40907294 6.22058508 8.94544748 5.5361591 4.625 4 C3.56539063 3.62875 2.50578125 3.2575 1.4140625 2.875 C0.61742188 2.58625 -0.17921875 2.2975 -1 2 C-0.67 1.34 -0.34 0.68 0 0 Z " fill="#64B7C0" transform="translate(79,194)"/>
<path d="M0 0 C1.98799818 0.70164642 3.98698517 1.37372872 6 2 C2.82978983 2.99626083 0.5026511 2.96516845 -2.765625 2.44140625 C-3.65507812 2.30283203 -4.54453125 2.16425781 -5.4609375 2.02148438 C-6.38132813 1.87001953 -7.30171875 1.71855469 -8.25 1.5625 C-9.18585938 1.41490234 -10.12171875 1.26730469 -11.0859375 1.11523438 C-13.39184331 0.75052478 -15.69633288 0.37855026 -18 0 C-18 -0.33 -18 -0.66 -18 -1 C-12.11614923 -2.56902687 -5.16397848 -3.44265232 0 0 Z " fill="#E3F8F8" transform="translate(158,92)"/>
<path d="M0 0 C0.99 0 1.98 0 3 0 C3 0.66 3 1.32 3 2 C3.66 2 4.32 2 5 2 C5 2.66 5 3.32 5 4 C5.66 4 6.32 4 7 4 C7 4.66 7 5.32 7 6 C7.66 6 8.32 6 9 6 C9 6.99 9 7.98 9 9 C9.99 9 10.98 9 12 9 C12 10.65 12 12.3 12 14 C7.76014063 9.88862122 3.72154258 5.59026002 0 1 C0 0.67 0 0.34 0 0 Z " fill="#272138" transform="translate(214,235)"/>
<path d="M0 0 C1.98 0 3.96 0 6 0 C6 0.66 6 1.32 6 2 C-2.82226536 5.92100683 -11.54165757 5.2754857 -21 5 C-21 4.67 -21 4.34 -21 4 C-11.1 3.505 -11.1 3.505 -1 3 C-0.67 2.01 -0.34 1.02 0 0 Z " fill="#555064" transform="translate(321,296)"/>
<path d="M0 0 C0.66 0 1.32 0 2 0 C1 3 1 3 -1.36328125 4.203125 C-2.33652344 4.54859375 -3.30976563 4.8940625 -4.3125 5.25 C-5.27800781 5.60578125 -6.24351562 5.9615625 -7.23828125 6.328125 C-10.02246834 7.00546613 -11.35478935 6.98017307 -14 6 C-14 5.34 -14 4.68 -14 4 C-12.22978678 3.663389 -10.45880326 3.33082707 -8.6875 3 C-7.20830078 2.7215625 -7.20830078 2.7215625 -5.69921875 2.4375 C-3 2 -3 2 0 2 C0 1.34 0 0.68 0 0 Z " fill="#4B8690" transform="translate(180,240)"/>
<path d="M0 0 C0.66 0.33 1.32 0.66 2 1 C1.319375 1.763125 0.63875 2.52625 -0.0625 3.3125 C-0.701875 4.199375 -1.34125 5.08625 -2 6 C-1.67 6.99 -1.34 7.98 -1 9 C-3.76264289 9.59732819 -6.16032769 10 -9 10 C-7.61811547 6.78956118 -6.07578097 4.95063635 -3.375 2.75 C-2.74335938 2.22921875 -2.11171875 1.7084375 -1.4609375 1.171875 C-0.73777344 0.59179688 -0.73777344 0.59179688 0 0 Z " fill="#E8E8EB" transform="translate(368,275)"/>
<path d="M0 0 C0.66 0.33 1.32 0.66 2 1 C2 1.99 2 2.98 2 4 C3.32 4.33 4.64 4.66 6 5 C5.67 5.99 5.34 6.98 5 8 C3.35 8.33 1.7 8.66 0 9 C0 7.68 0 6.36 0 5 C-1.65 4.67 -3.3 4.34 -5 4 C-3.35 2.68 -1.7 1.36 0 0 Z " fill="#18263C" transform="translate(187,143)"/>
<path d="M0 0 C0.99 0.99 1.98 1.98 3 3 C1.68 2.67 0.36 2.34 -1 2 C-1.33 2.99 -1.66 3.98 -2 5 C-5.63 5 -9.26 5 -13 5 C-10.14415227 3.09610151 -8.0688238 2.30537823 -4.8125 1.375 C-3.91144531 1.11460937 -3.01039063 0.85421875 -2.08203125 0.5859375 C-1.39496094 0.39257812 -0.70789063 0.19921875 0 0 Z " fill="#D6F5F6" transform="translate(180,195)"/>
<path d="M0 0 C1.8871875 0.0309375 1.8871875 0.0309375 3.8125 0.0625 C3.8125 0.3925 3.8125 0.7225 3.8125 1.0625 C1.5025 1.0625 -0.8075 1.0625 -3.1875 1.0625 C-3.1875 2.7125 -3.1875 4.3625 -3.1875 6.0625 C-5.8275 5.7325 -8.4675 5.4025 -11.1875 5.0625 C-7.60998157 1.23825617 -5.24114904 -0.08592048 0 0 Z " fill="#2A213B" transform="translate(298.1875,150.9375)"/>
<path d="M0 0 C0.66 1.32 1.32 2.64 2 4 C-0.41267325 4.867242 -2.82904469 5.71896936 -5.25 6.5625 C-5.93191406 6.80935547 -6.61382812 7.05621094 -7.31640625 7.31054688 C-11.22962556 8.6592778 -12.86954003 9.03261499 -17 8 C-13.04 7.01 -9.08 6.02 -5 5 C-5 4.34 -5 3.68 -5 3 C-3.35 2.67 -1.7 2.34 0 2 C0 1.34 0 0.68 0 0 Z " fill="#D7F3F4" transform="translate(183,198)"/>
<path d="M0 0 C0.66 0.33 1.32 0.66 2 1 C2.35430394 4.18873549 2.25953249 5.61589191 0.4375 8.3125 C-2.814649 10.56398777 -5.13193005 10.29754384 -9 10 C-9 9.67 -9 9.34 -9 9 C-7.02 9 -5.04 9 -3 9 C-3.33 7.68 -3.66 6.36 -4 5 C-2.68 4.67 -1.36 4.34 0 4 C0 2.68 0 1.36 0 0 Z " fill="#362E43" transform="translate(246,178)"/>
<path d="M0 0 C0.33 0.66 0.66 1.32 1 2 C3.11327425 2.90725434 3.11327425 2.90725434 5.5625 3.625 C6.38878906 3.88539062 7.21507812 4.14578125 8.06640625 4.4140625 C9.02353516 4.70410156 9.02353516 4.70410156 10 5 C7 7 7 7 4.3125 6.625 C3.549375 6.41875 2.78625 6.2125 2 6 C2 5.34 2 4.68 2 4 C0.68 4 -0.64 4 -2 4 C-2 3.34 -2 2.68 -2 2 C-2.66 1.67 -3.32 1.34 -4 1 C-2.68 0.67 -1.36 0.34 0 0 Z " fill="#8DB6C0" transform="translate(174,96)"/>
<path d="M0 0 C4.95 1.65 9.9 3.3 15 5 C15 5.33 15 5.66 15 6 C3.89635502 6.38808856 3.89635502 6.38808856 0 4 C-0.33 3.01 -0.66 2.02 -1 1 C-0.67 0.67 -0.34 0.34 0 0 Z " fill="#E1F9F9" transform="translate(75,242)"/>
<path d="M0 0 C-3.85940746 3.85940746 -10.35985738 3.94344336 -15.625 4.125 C-16.40875 4.08375 -17.1925 4.0425 -18 4 C-17.34 3.01 -16.68 2.02 -16 1 C-15.67 1.33 -15.34 1.66 -15 2 C-11.92862994 1.30321157 -8.91571421 0.44150084 -5.8828125 -0.40625 C-3 -1 -3 -1 0 0 Z " fill="#5BA6B5" transform="translate(180,157)"/>
<path d="M0 0 C0 0.99 0 1.98 0 3 C-4.455 2.01 -4.455 2.01 -9 1 C-9 0.67 -9 0.34 -9 0 C-5.62182575 -0.84454356 -3.32534757 -1.10844919 0 0 Z M-12 3 C-8.37 3 -4.74 3 -1 3 C-1 3.66 -1 4.32 -1 5 C-4.63 4.67 -8.26 4.34 -12 4 C-12 3.67 -12 3.34 -12 3 Z " fill="#E1EBEC" transform="translate(169,248)"/>
<path d="M0 0 C3.3 0.66 6.6 1.32 10 2 C10 2.99 10 3.98 10 5 C5.86050943 5.11187812 2.92487115 4.30829038 -1 3 C-0.67 2.01 -0.34 1.02 0 0 Z " fill="#FCFBF9" transform="translate(75,198)"/>
<path d="M0 0 C-1.2355957 1.5090332 -1.2355957 1.5090332 -3 3 C-4.99291992 3.15698242 -4.99291992 3.15698242 -7.23046875 2.85546875 C-8.03291016 2.75556641 -8.83535156 2.65566406 -9.66210938 2.55273438 C-10.49548828 2.43220703 -11.32886719 2.31167969 -12.1875 2.1875 C-13.03248047 2.07857422 -13.87746094 1.96964844 -14.74804688 1.85742188 C-16.83400115 1.58636567 -18.91731128 1.29510064 -21 1 C-21 0.67 -21 0.34 -21 0 C-13.81191259 -0.88826175 -7.17757765 -1.01202288 0 0 Z " fill="#4B4558" transform="translate(314,138)"/>
<path d="M0 0 C1.5625 1.25 1.5625 1.25 3 3 C2.6875 5.1875 2.6875 5.1875 2 7 C-0.31 6.67 -2.62 6.34 -5 6 C-5.33 5.01 -5.66 4.02 -6 3 C-2 3 -2 3 0 4 C0 2.68 0 1.36 0 0 Z " fill="#291D3A" transform="translate(358,89)"/>
<path d="M0 0 C0 0.33 0 0.66 0 1 C-6.5705166 1.24794402 -12.56971459 0.32388229 -19 -1 C-12.8787384 -4.45984351 -6.42957229 -1.69199271 0 0 Z " fill="#559A97" transform="translate(109,249)"/>
<path d="M0 0 C1.65 0 3.3 0 5 0 C5 4 5 4 4 6 C3.67 5.67 3.34 5.34 3 5 C2.67 6.32 2.34 7.64 2 9 C1.34 9 0.68 9 0 9 C-1.125 2.25 -1.125 2.25 0 0 Z " fill="#170D26" transform="translate(226,240)"/>
<path d="M0 0 C3.26008643 3.16952847 6.22237877 6.39937989 9 10 C6.69 9.67 4.38 9.34 2 9 C1.34 6.03 0.68 3.06 0 0 Z " fill="#E1DFE7" transform="translate(207,228)"/>
<path d="M0 0 C0 3.96 0 7.92 0 12 C-0.33 12 -0.66 12 -1 12 C-1 9.03 -1 6.06 -1 3 C-2.98 3 -4.96 3 -7 3 C-6.67 2.01 -6.34 1.02 -6 0 C-4 -1 -4 -1 0 0 Z " fill="#3B757F" transform="translate(194,199)"/>
<path d="M0 0 C1.5625 1.25 1.5625 1.25 3 3 C2.6875 5.1875 2.6875 5.1875 2 7 C2.66 7.33 3.32 7.66 4 8 C2 10 2 10 -0.625 10.125 C-1.40875 10.08375 -2.1925 10.0425 -3 10 C-1.68 9.67 -0.36 9.34 1 9 C0.505 8.236875 0.01 7.47375 -0.5 6.6875 C-2 4 -2 4 -2 1 C-1.34 0.67 -0.68 0.34 0 0 Z " fill="#DAD6DD" transform="translate(297,177)"/>
<path d="M0 0 C1.32 0.66 2.64 1.32 4 2 C3.649375 2.61875 3.29875 3.2375 2.9375 3.875 C2.4734375 4.926875 2.4734375 4.926875 2 6 C2.33 6.66 2.66 7.32 3 8 C1.68 8.33 0.36 8.66 -1 9 C-1.625 5.625 -1.625 5.625 -2 2 C-1.34 1.34 -0.68 0.68 0 0 Z " fill="#302938" transform="translate(235,151)"/>
<path d="M0 0 C0.33 0 0.66 0 1 0 C1 3.96 1 7.92 1 12 C0.01 12 -0.98 12 -2 12 C-2.33 12.99 -2.66 13.98 -3 15 C-4.125 13.25 -4.125 13.25 -5 11 C-4.125 8.75 -4.125 8.75 -3 7 C-2.34 7.66 -1.68 8.32 -1 9 C-0.67 6.03 -0.34 3.06 0 0 Z " fill="#3E364E" transform="translate(268,164)"/>
<path d="M0 0 C-0.66 2.64 -1.32 5.28 -2 8 C-4 7.33333333 -6 6.66666667 -8 6 C-6.72879117 2.18637351 -4.19078006 0 0 0 Z " fill="#262034" transform="translate(209,63)"/>
<path d="M0 0 C3.3 0.99 6.6 1.98 10 3 C10 3.66 10 4.32 10 5 C11.32 5.33 12.64 5.66 14 6 C12.35 6 10.7 6 9 6 C9 5.34 9 4.68 9 4 C6.03 4 3.06 4 0 4 C0 2.68 0 1.36 0 0 Z " fill="#D6F2F0" transform="translate(68,143)"/>
<path d="M0 0 C3.36720387 1.39332574 4.9859524 2.9789286 7 6 C4 7 4 7 0 7 C0 4.69 0 2.38 0 0 Z " fill="#F2ECF1" transform="translate(224,249)"/>
<path d="M0 0 C0.66 0.33 1.32 0.66 2 1 C2.4140625 3.06640625 2.4140625 3.06640625 2.625 5.5625 C2.69976562 6.38878906 2.77453125 7.21507812 2.8515625 8.06640625 C2.90054688 8.70449219 2.94953125 9.34257812 3 10 C1.35 10 -0.3 10 -2 10 C-2.66 8.68 -3.32 7.36 -4 6 C-2.68 5.67 -1.36 5.34 0 5 C0 3.35 0 1.7 0 0 Z " fill="#2B243A" transform="translate(236,176)"/>
<path d="M0 0 C3.77300358 1.0197307 4.80206144 1.65872662 6.8125 5.125 C7.204375 6.07375 7.59625 7.0225 8 8 C4.11137013 6.73882275 2.10624401 5.54735833 0 2 C0 1.34 0 0.68 0 0 Z " fill="#A0C8CB" transform="translate(64,136)"/>
<path d="M0 0 C1.5 1.25 1.5 1.25 3 3 C3 4.32 3 5.64 3 7 C0 8 0 8 -3 8 C-2.67 6.02 -2.34 4.04 -2 2 C-1.34 2 -0.68 2 0 2 C0 1.34 0 0.68 0 0 Z " fill="#291D3A" transform="translate(390,120)"/>
<path d="M0 0 C0.66 0.33 1.32 0.66 2 1 C2 1.99 2 2.98 2 4 C0.68 4.33 -0.64 4.66 -2 5 C-1.67 5.99 -1.34 6.98 -1 8 C-2.32 8.99 -3.64 9.98 -5 11 C-4.32902328 6.80639551 -2.1441606 3.59665648 0 0 Z " fill="#18122A" transform="translate(195,72)"/>
<path d="M0 0 C0 1.32 0 2.64 0 4 C-0.639375 4.103125 -1.27875 4.20625 -1.9375 4.3125 C-2.618125 4.539375 -3.29875 4.76625 -4 5 C-4.33 5.99 -4.66 6.98 -5 8 C-5 7.01 -5 6.02 -5 5 C-5.99 4.67 -6.98 4.34 -8 4 C-2.7826087 0 -2.7826087 0 0 0 Z " fill="#4AA7B4" transform="translate(188,152)"/>
<path d="M0 0 C0.99 0.33 1.98 0.66 3 1 C2.67 2.65 2.34 4.3 2 6 C-0.97 5.505 -0.97 5.505 -4 5 C-3.34 4.67 -2.68 4.34 -2 4 C-0.86649466 1.98330173 -0.86649466 1.98330173 0 0 Z " fill="#53B3BF" transform="translate(190,150)"/>
<path d="M0 0 C1.98 0 3.96 0 6 0 C6 0.99 6 1.98 6 3 C1.545 3.495 1.545 3.495 -3 4 C-2.34 3.67 -1.68 3.34 -1 3 C-0.67 2.01 -0.34 1.02 0 0 Z " fill="#270F30" transform="translate(181,148)"/>
<path d="M0 0 C0.33 0 0.66 0 1 0 C1.25 2.3125 1.25 2.3125 1 5 C-0.875 6.6875 -0.875 6.6875 -3 8 C-3.66 8.66 -4.32 9.32 -5 10 C-7.125 9.625 -7.125 9.625 -9 9 C-8.51789063 8.68546875 -8.03578125 8.3709375 -7.5390625 8.046875 C-2.74628648 4.90611252 -2.74628648 4.90611252 0 0 Z " fill="#D6EDED" transform="translate(193,232)"/>
<path d="M0 0 C4.62 0 9.24 0 14 0 C14.66 1.32 15.32 2.64 16 4 C15.01 4 14.02 4 13 4 C13 3.34 13 2.68 13 2 C8.71 1.67 4.42 1.34 0 1 C0 0.67 0 0.34 0 0 Z " fill="#3F394B" transform="translate(293,199)"/>
<path d="M0 0 C0.66 0.33 1.32 0.66 2 1 C2 2.98 2 4.96 2 7 C-0.97 6.505 -0.97 6.505 -4 6 C-3.67 4.68 -3.34 3.36 -3 2 C-2.01 2 -1.02 2 0 2 C0 1.34 0 0.68 0 0 Z " fill="#131A32" transform="translate(192,192)"/>
<path d="M0 0 C2 3 2 3 2 5 C1.34 5 0.68 5 0 5 C0 5.66 0 6.32 0 7 C-2.35438733 8.42944945 -3.48032433 9.08661261 -6.25 8.625 C-6.8275 8.41875 -7.405 8.2125 -8 8 C-7.05125 7.4225 -6.1025 6.845 -5.125 6.25 C-2.23865902 4.17183449 -1.15904259 3.24531925 0 0 Z " fill="#14233E" transform="translate(193,184)"/>
<path d="M0 0 C3 2 3 2 3.8125 5.4375 C4 9 4 9 2 12 C2 11.34 2 10.68 2 10 C1.34 10 0.68 10 0 10 C0 6.7 0 3.4 0 0 Z " fill="#1A112B" transform="translate(392,124)"/>
<path d="M0 0 C1.14926266 0.95421808 2.29430541 1.91352045 3.4375 2.875 C4.07558594 3.40867187 4.71367187 3.94234375 5.37109375 4.4921875 C7 6 7 6 8 8 C4 8 4 8 1 6 C0.3125 2.875 0.3125 2.875 0 0 Z " fill="#E8E1EC" transform="translate(240,264)"/>
<path d="M0 0 C3.465 1.98 3.465 1.98 7 4 C7 4.66 7 5.32 7 6 C1.25 5.125 1.25 5.125 -1 4 C-0.67 2.68 -0.34 1.36 0 0 Z " fill="#13172C" transform="translate(176,94)"/>
<path d="M0 0 C0.99 0.33 1.98 0.66 3 1 C1.35 3.64 -0.3 6.28 -2 9 C-2.33 8.34 -2.66 7.68 -3 7 C-3.66 6.67 -4.32 6.34 -5 6 C-3.35 4.02 -1.7 2.04 0 0 Z " fill="#EBE7EF" transform="translate(178,86)"/>
<path d="M0 0 C-0.33 1.32 -0.66 2.64 -1 4 C-2.65 4.33 -4.3 4.66 -6 5 C-6 4.01 -6 3.02 -6 2 C-3 0 -3 0 0 0 Z " fill="#1A112A" transform="translate(384,257)"/>
<path d="M0 0 C6.4 0.49230769 6.4 0.49230769 9.4375 3.0625 C10.2109375 4.0215625 10.2109375 4.0215625 11 5 C6.80530429 4.40075776 2.99000166 3.42500059 -1 2 C-0.67 1.34 -0.34 0.68 0 0 Z " fill="#5B9296" transform="translate(79,242)"/>
<path d="M0 0 C0 0.99 0 1.98 0 3 C-1.98 3.33 -3.96 3.66 -6 4 C-6 2.68 -6 1.36 -6 0 C-3.50907189 -1.24546405 -2.58919267 -0.7767578 0 0 Z " fill="#A0CCCB" transform="translate(86,98)"/>
<path d="M0 0 C0.66 0.33 1.32 0.66 2 1 C1.875 2.75 1.875 2.75 1 5 C-2.0625 7.25 -2.0625 7.25 -5 9 C-4.42647107 5.12867972 -2.51295648 2.91827204 0 0 Z " fill="#2C283A" transform="translate(363,275)"/>
<path d="M0 0 C4.51720311 -0.36625971 4.51720311 -0.36625971 6.8125 1.375 C8 3 8 3 8 5 C5.125 4.75 5.125 4.75 2 4 C0.625 1.9375 0.625 1.9375 0 0 Z " fill="#E7E6E9" transform="translate(216,243)"/>
<path d="M0 0 C1.32 1.65 2.64 3.3 4 5 C3.34 6.32 2.68 7.64 2 9 C1.01 8.67 0.02 8.34 -1 8 C-0.67 5.36 -0.34 2.72 0 0 Z " fill="#191227" transform="translate(196,206)"/>
<path d="M0 0 C0.66 0.33 1.32 0.66 2 1 C2 1.99 2 2.98 2 4 C-1.465 5.485 -1.465 5.485 -5 7 C-3.75023244 3.34683329 -3.32901247 2.21934164 0 0 Z " fill="#DBD7E3" transform="translate(320,200)"/>
<path d="M0 0 C1.4606285 2.64738916 2 3.89448334 2 7 C0.02 7.99 0.02 7.99 -2 9 C-2.125 5.625 -2.125 5.625 -2 2 C-1.34 1.34 -0.68 0.68 0 0 Z " fill="#1A0E2E" transform="translate(264,174)"/>
<path d="M0 0 C1.4606285 2.64738916 2 3.89448334 2 7 C0.125 7.625 0.125 7.625 -2 8 C-2.66 7.34 -3.32 6.68 -4 6 C-2.68 4.02 -1.36 2.04 0 0 Z " fill="#1F2339" transform="translate(193,136)"/>
<path d="M0 0 C0.99 0.33 1.98 0.66 3 1 C2.01 1.495 2.01 1.495 1 2 C1 3.65 1 5.3 1 7 C-0.98 6.01 -2.96 5.02 -5 4 C-3.36587557 2.29159719 -2.13093906 1.06546953 0 0 Z " fill="#1D2439" transform="translate(187,97)"/>
<path d="M0 0 C1.98 0.99 3.96 1.98 6 3 C5.67 3.99 5.34 4.98 5 6 C0.125 4.25 0.125 4.25 -1 2 C-0.67 1.34 -0.34 0.68 0 0 Z " fill="#2B2233" transform="translate(278,192)"/>
<path d="M0 0 C0.66 0 1.32 0 2 0 C2 2.64 2 5.28 2 8 C1.01 8.495 1.01 8.495 0 9 C-0.33 8.34 -0.66 7.68 -1 7 C-1.99 7.495 -1.99 7.495 -3 8 C-2.690625 7.236875 -2.38125 6.47375 -2.0625 5.6875 C-1.32106407 3.81210323 -0.63771783 1.91315348 0 0 Z " fill="#ECE7EE" transform="translate(316,188)"/>
<path d="M0 0 C2.31 0.33 4.62 0.66 7 1 C6.67 1.66 6.34 2.32 6 3 C3.35139573 3.59355614 0.70802678 3.74209269 -2 4 C-1.34 2.68 -0.68 1.36 0 0 Z " fill="#0B1A3A" transform="translate(167,155)"/>
<path d="M0 0 C7.625 0.875 7.625 0.875 11 2 C11 2.99 11 3.98 11 5 C7.27566618 3.7874262 3.62197194 2.49140021 0 1 C0 0.67 0 0.34 0 0 Z " fill="#C5EDEF" transform="translate(65,150)"/>
<path d="M0 0 C-1.3125 2 -1.3125 2 -3 4 C-3.99 4 -4.98 4 -6 4 C-6 3.34 -6 2.68 -6 2 C-6.66 1.67 -7.32 1.34 -8 1 C-2.25 -1.125 -2.25 -1.125 0 0 Z " fill="#F6F2F8" transform="translate(214,58)"/>
<path d="M0 0 C1.98 1.65 3.96 3.3 6 5 C5.01 5.66 4.02 6.32 3 7 C3 6.01 3 5.02 3 4 C2.34 4 1.68 4 1 4 C0.67 4.66 0.34 5.32 0 6 C-1.125 2.25 -1.125 2.25 0 0 Z " fill="#E2E1E5" transform="translate(233,257)"/>
<path d="M0 0 C1.98362069 2.91708924 1.9876191 4.12380904 1.625 7.75 C1.41875 8.8225 1.2125 9.895 1 11 C-1.08997373 7.60379269 -1.2632246 4.94836905 -1 1 C-0.67 0.67 -0.34 0.34 0 0 Z " fill="#180E25" transform="translate(260,144)"/>
<path d="M0 0 C0.99 0.33 1.98 0.66 3 1 C3 1.66 3 2.32 3 3 C3.66 3.33 4.32 3.66 5 4 C3.02 4.66 1.04 5.32 -1 6 C-1.66 5.34 -2.32 4.68 -3 4 C-1.68 3.67 -0.36 3.34 1 3 C0.67 2.01 0.34 1.02 0 0 Z " fill="#1B1227" transform="translate(284,136)"/>
<path d="M0 0 C0.33 0.66 0.66 1.32 1 2 C1.66 2.33 2.32 2.66 3 3 C2.67 3.66 2.34 4.32 2 5 C1.34 5 0.68 5 0 5 C-0.33 5.66 -0.66 6.32 -1 7 C-1.66 6.01 -2.32 5.02 -3 4 C-2.01 2.68 -1.02 1.36 0 0 Z " fill="#2A223A" transform="translate(212,226)"/>
<path d="M0 0 C0.99 0.33 1.98 0.66 3 1 C2.67 2.65 2.34 4.3 2 6 C0.68 5.67 -0.64 5.34 -2 5 C-1.34 3.35 -0.68 1.7 0 0 Z " fill="#161027" transform="translate(311,171)"/>
<path d="M0 0 C0 0.99 0 1.98 0 3 C-2.31 2.67 -4.62 2.34 -7 2 C-7.33 2.66 -7.66 3.32 -8 4 C-8 3.01 -8 2.02 -8 1 C-5.10765685 0.17361624 -3.11257569 0 0 0 Z " fill="#292D4A" transform="translate(170,151)"/>
<path d="M0 0 C2.475 0.495 2.475 0.495 5 1 C4.67 3.31 4.34 5.62 4 8 C2.22293791 5.33440687 1.12451727 2.9719385 0 0 Z " fill="#E4E2EB" transform="translate(400,136)"/>
<path d="M0 0 C2.50037734 2.17424117 3.43628586 3.73045798 4 7 C2.68 7.33 1.36 7.66 0 8 C0 5.36 0 2.72 0 0 Z " fill="#292032" transform="translate(395,128)"/>
<path d="M0 0 C1.98 0 3.96 0 6 0 C5.67 1.32 5.34 2.64 5 4 C5.66 4.33 6.32 4.66 7 5 C6.01 5 5.02 5 4 5 C1.8125 2.5 1.8125 2.5 0 0 Z " fill="#F3F1F6" transform="translate(377,104)"/>
<path d="M0 0 C4.75 0.75 4.75 0.75 7 3 C6.67 3.99 6.34 4.98 6 6 C3.97945196 4.35830472 1.97956942 2.69088222 0 1 C0 0.67 0 0.34 0 0 Z " fill="#2D273C" transform="translate(255,277)"/>
<path d="M0 0 C0.66 0 1.32 0 2 0 C3.32 2.31 4.64 4.62 6 7 C1.32307692 5.52307692 1.32307692 5.52307692 -0.3125 2.875 C-0.539375 2.25625 -0.76625 1.6375 -1 1 C-0.67 0.67 -0.34 0.34 0 0 Z " fill="#362F42" transform="translate(218,187)"/>
<path d="M0 0 C1.32 0.66 2.64 1.32 4 2 C3.67 2.99 3.34 3.98 3 5 C1.68 5 0.36 5 -1 5 C-0.67 3.35 -0.34 1.7 0 0 Z " fill="#1A1023" transform="translate(292,179)"/>
<path d="M0 0 C0 0.33 0 0.66 0 1 C-2.31 1 -4.62 1 -7 1 C-7.33 1.99 -7.66 2.98 -8 4 C-9.32 3.34 -10.64 2.68 -12 2 C-8.09971775 -0.60018816 -4.52565431 -0.15085514 0 0 Z " fill="#4A4553" transform="translate(302,151)"/>
<path d="M0 0 C2 1 2 1 3 3 C-1.75 6 -1.75 6 -4 6 C-4 5.34 -4 4.68 -4 4 C-3.34 4 -2.68 4 -2 4 C-1.34 2.68 -0.68 1.36 0 0 Z " fill="#8BBCC4" transform="translate(186,140)"/>
<path d="M0 0 C0.66 0.99 1.32 1.98 2 3 C0.68 4.32 -0.64 5.64 -2 7 C-2.99 6.67 -3.98 6.34 -5 6 C-3.35 4.02 -1.7 2.04 0 0 Z " fill="#E9E6EF" transform="translate(377,267)"/>
<path d="M0 0 C0.598125 0.165 1.19625 0.33 1.8125 0.5 C4.11344336 1.1114124 4.11344336 1.1114124 7 1 C6.34 2.32 5.68 3.64 5 5 C3.0625 4.1875 3.0625 4.1875 1 3 C0.67 2.01 0.34 1.02 0 0 Z " fill="#170D25" transform="translate(206,225)"/>
<path d="M0 0 C2.0625 0.4375 2.0625 0.4375 4 1 C4 2.32 4 3.64 4 5 C2.68 5 1.36 5 0 5 C-0.5625 3.0625 -0.5625 3.0625 -1 1 C-0.67 0.67 -0.34 0.34 0 0 Z " fill="#190E27" transform="translate(306,203)"/>
<path d="M0 0 C0.66 1.32 1.32 2.64 2 4 C-0.31 4.33 -2.62 4.66 -5 5 C-5 4.34 -5 3.68 -5 3 C-3.35 2.67 -1.7 2.34 0 2 C0 1.34 0 0.68 0 0 Z " fill="#DCECEF" transform="translate(183,198)"/>
<path d="M0 0 C3.91211733 1.15585285 6.8745041 2.35534962 10 5 C3.47692308 4.50769231 3.47692308 4.50769231 1.0625 1.9375 C0.711875 1.298125 0.36125 0.65875 0 0 Z " fill="#D4F8FA" transform="translate(70,192)"/>
<path d="M0 0 C0.33 0 0.66 0 1 0 C1 2.97 1 5.94 1 9 C0.01 9.495 0.01 9.495 -1 10 C-2.23076923 4.58461538 -2.23076923 4.58461538 -1.0625 1.625 C-0.5365625 0.820625 -0.5365625 0.820625 0 0 Z " fill="#120B1F" transform="translate(267,164)"/>
<path d="M0 0 C1.65 0 3.3 0 5 0 C5 1.32 5 2.64 5 4 C3.68 4 2.36 4 1 4 C0.67 2.68 0.34 1.36 0 0 Z " fill="#43BCC5" transform="translate(67,154)"/>
<path d="M0 0 C2 2 2 2 2.125 4.625 C2.08375 5.40875 2.0425 6.1925 2 7 C1.34 7 0.68 7 0 7 C-0.66 5.02 -1.32 3.04 -2 1 C-1.34 0.67 -0.68 0.34 0 0 Z " fill="#1A1227" transform="translate(404,149)"/>
<path d="M0 0 C-0.66 0.66 -1.32 1.32 -2 2 C-3.32 2 -4.64 2 -6 2 C-6.33 2.66 -6.66 3.32 -7 4 C-7.66 3.01 -8.32 2.02 -9 1 C-6.04335481 -0.4783226 -3.25770263 -0.06032783 0 0 Z " fill="#2F2938" transform="translate(231,55)"/>
</svg>
